PathFileType	4	(X/Y/Z)	5_coords_data.trc
DataRate	CameraRate	NumFrames	NumMarkers	Units	OrigDataRate	OrigDataStartFrame	OrigNumFrames
30.0	30.0	9	21	m	30.0	11	62
Frame#	Time	THUMB_TIP	THUMB_IP	THUMB_MCP	THUMB_CMC	INDEX_TIP	INDEX_DIP	INDEX_PIP	INDEX_MCP	MIDDLE_TIP	MIDDLE_DIP	MIDDLE_PIP	MIDDLE_MCP	RING_TIP	RING_DIP	RING_PIP	RING_MCP	PINKY_TIP	PINKY_DIP	PINKY_PIP	PINKY_MCP	WRIST
X1	Y1	Z1	X2	Y2	Z2	X3	Y3	Z3	X4	Y4	Z4	X5	Y5	Z5	X6	Y6	Z6	X7	Y7	Z7	X8	Y8	Z8	X9	Y9	Z9	X10	Y10	Z10	X11	Y11	Z11	X12	Y12	Z12	X13	Y13	Z13	X14	Y14	Z14	X15	Y15	Z15	X16	Y16	Z16	X17	Y17	Z17	X18	Y18	Z18	X19	Y19	Z19	X20	Y20	Z20	X21	Y21	Z21
9	0.33333333333333187	0.47990111278251457	-0.025423441198068497	-0.17358745765734435	0.48589834438883595	-0.025209390200697124	-0.15140666877978942	0.4752362026296876	-0.02875617871463787	-0.12237980149540612	0.4736675946252844	-0.02796954750127023	-0.07780614694181721	0.49415489963493675	-0.0158095638131468	-0.09899437549915095	0.5117699511476053	-0.019773915694322186	-0.10040642166279365	0.5314405387840461	-0.007948219862854877	-0.11066462487479528	0.49980660546905076	0.020341306828705163	-0.11421892320075791	0.49887618784715126	-0.015658358851085907	-0.08457796798077205	0.5169685751490816	-0.014843488329968069	-0.08461679774724683	0.5393477316335408	0.0018549057776408029	-0.09296823710050009	0.5052106470102804	0.03051535483026957	-0.0960319006796213	0.5030935489602081	-0.003960136093821065	-0.06858829847316315	0.5210673903536192	-0.005320325289956074	-0.0688898128430066	0.5406270907057071	0.009474347674507722	-0.07321598355289435	0.5103229666647674	0.035970833945169534	-0.07699977998240438	0.505742098609569	-0.005195538540568312	-0.05111381685467138	0.5218166737018579	-0.011065271229253382	-0.05072103986229312	0.5372253734417649	0.002908335032764109	-0.053571008170799725	0.5135527009104076	0.030083806882690522	-0.0549787567126134	0.462283081001861	-0.023011742144276925	-0.051989820119430985
10	0.3666666666666651	0.48003578796146795	-0.0252673874302064	-0.1735660485168659	0.4860018690794792	-0.025083078702570316	-0.15137659367033518	0.47528875434122064	-0.028680457770069445	-0.12237473103274539	0.47368616684734166	-0.027952097994981995	-0.07780129493721318	0.49418452030283666	-0.01572413742365486	-0.0990209659244696	0.5117880871785516	-0.019748593759557953	-0.10040595128635782	0.5314697769689772	-0.007921783359663204	-0.11064154974264727	0.49983898462350906	0.020373635987200545	-0.11417684514515643	0.49888603197115544	-0.015726240071835096	-0.08456079119940343	0.5169741611982314	-0.014822046997726823	-0.08460569052382752	0.5393825578523894	0.0018475659119817633	-0.09293619560037633	0.5052556385983754	0.03052227816383435	-0.0959795786691773	0.5030942840300783	-0.003977664898371591	-0.0685812855291796	0.5210686825009755	-0.005331683980377089	-0.06887731244514267	0.5406476223008445	0.009444152474205714	-0.07318077063368483	0.5103603023454523	0.035962132692309745	-0.07694850325051708	0.5057481986291608	-0.005225736140759607	-0.05110273305944635	0.5218140662467223	-0.011119759064854295	-0.050717516931498285	0.5372443124356587	0.0028337724184249735	-0.05354920912768575	0.5136029812328006	0.030037467720825384	-0.05493840740400602	0.462283081001861	-0.023011742144276925	-0.051989820119430985
11	0.39999999999999825	0.4801715763628215	-0.025146985406969025	-0.17355153103874832	0.4861034027858887	-0.024979761506238263	-0.1513527591931343	0.47534387341531537	-0.02861649766669294	-0.12237299594663743	0.4736969369200513	-0.027931385509618267	-0.07780049072746904	0.4942179267045803	-0.015619723618018111	-0.09906297383634202	0.51180609094883	-0.01972981423477216	-0.10039099252573089	0.531496886418127	-0.007906820893449074	-0.11061347927002878	0.4998757271469271	0.020401015186627847	-0.11413552367759998	0.49889179034467324	-0.015806047852589766	-0.08455197306681939	0.5169749419722188	-0.014807059659526223	-0.08459259086236177	0.5394121056888739	0.0018361865976261882	-0.09289834720214224	0.5052995964344897	0.030529516841955373	-0.0959277750127076	0.5031073137198814	-0.003990946629060188	-0.06857863659042819	0.5210822142312237	-0.005340797289891008	-0.06886298637643791	0.540670468949712	0.009427667170965326	-0.07314932672130568	0.5103916870012463	0.03595819899470998	-0.07689727000616821	0.5056933527055864	-0.005428310015349047	-0.05106867886309974	0.5218169394938543	-0.0111640950760995	-0.05070712828840575	0.5372717507679288	0.002764877446810532	-0.05352573644470496	0.5136542215400308	0.029990277857550707	-0.05489443533206691	0.462283081001861	-0.023011742144276925	-0.051989820119430985
12	0.43333333333333146	0.48027788443189845	-0.02501513602598604	-0.17354866848588757	0.48617180524556713	-0.024874101579165142	-0.1513396206286062	0.4753782908933133	-0.028541123830246873	-0.12237631633269125	0.47370224606544	-0.027899220169108285	-0.07780425295859136	0.49424541148591705	-0.015432019585880363	-0.09910685282329516	0.5117994470162416	-0.019703588553507623	-0.10037552738949035	0.5314998155172455	-0.007888490521073321	-0.11058869400952673	0.4998972673730495	0.02044223879843765	-0.11409366491074557	0.4989071241843651	-0.01583318177596371	-0.08452389547229865	0.5169885613705608	-0.014804266365053942	-0.08457832302831708	0.539431318177589	0.0018423047460331965	-0.09286227662210976	0.5053314008619063	0.03055310753318785	-0.09586783204178004	0.503110969107898	-0.004051730009846377	-0.06855845000291955	0.5210894199557787	-0.005351288391876485	-0.06885247912058452	0.5406857800744382	0.009411843841399592	-0.07312009856971775	0.5104187674313484	0.035959489110736764	-0.07684183342277823	0.5056945244154969	-0.00548184193310286	-0.05104328394060388	0.5218239878906836	-0.011202314627330678	-0.050701816288826626	0.5372949790860274	0.002710913599479392	-0.053509400791969614	0.5136951360671438	0.02995338590725327	-0.05484302856771078	0.4622830810018609	-0.023011742144276925	-0.051989820119430985
13	0.4666666666666647	0.48034904503528975	-0.024884601674732942	-0.17353121697410254	0.4862211567468959	-0.024768142688526673	-0.151316250367084	0.47539972033956635	-0.0284653352383214	-0.12236720407308904	0.4737317347062494	-0.027884338653893836	-0.07779400285424085	0.4942448033065332	-0.015390832386043773	-0.0990768785216789	0.5117942941217426	-0.019677106550806123	-0.10035876225719216	0.5315069341229667	-0.007878156068137465	-0.11056691707036367	0.499924028093261	0.02047676369373508	-0.11405327132897633	0.49893112004849194	-0.015874674478809636	-0.08451022607261599	0.5170108904726165	-0.014817164603643684	-0.08457001131221001	0.5394601000573985	0.0018313509553777862	-0.09283254534842124	0.5053743653616722	0.030561337254343623	-0.09581558046618327	0.5031132417755694	-0.004110978691479916	-0.06854251011042392	0.5210944137266544	-0.005370487655128153	-0.0688443253452943	0.5407042935004163	0.009378738245044316	-0.07309790379223657	0.5104549940898316	0.035950192170318584	-0.0767936520880265	0.5056706515344251	-0.005639925787686795	-0.05102585741092529	0.5218364819262058	-0.011258166246098544	-0.05070757782369685	0.5373258911611986	0.0026374508876095826	-0.05350079192653856	0.5137500351307916	0.02990236609348651	-0.054799584538878926	0.4622830810018609	-0.023011742144276925	-0.051989820119430985
14	0.4999999999999978	0.48038082209935695	-0.024789151842773638	-0.1735212914173046	0.4862477725622245	-0.02468751895188559	-0.15130488840012496	0.4753979730220843	-0.02841302672926105	-0.1223700920168861	0.47373074895307465	-0.027874313316159638	-0.07779633121793335	0.4942453471927485	-0.015298281039083372	-0.09907979139811858	0.5117791673643722	-0.019652026358206287	-0.10034866959769807	0.5314965827716893	-0.007855646121333715	-0.11055057020309615	0.4999272322844246	0.020515970483608537	-0.1140238359623512	0.49892094449343927	-0.01591393012531872	-0.0845098943254674	0.5169971990952646	-0.014797723418898512	-0.0845655913498482	0.5394598465954482	0.0018412539542407291	-0.09281079900391367	0.505384344397583	0.03058515655191718	-0.09577662678356773	0.5031039812787057	-0.00412671515232943	-0.06853535518118292	0.5210856863899817	-0.005378873198519707	-0.06883599037285863	0.5407016540192359	0.009365964926278947	-0.07307669098025088	0.5104692907084152	0.03596123402310447	-0.07673957294804412	0.5056093021046824	-0.005865672872727101	-0.05099761435101187	0.5218396941619284	-0.01129592393108747	-0.05070308572548039	0.5373393559445307	0.002589913418238332	-0.05348804977067233	0.513782739393747	0.029873446120894598	-0.0547442786281782	0.4622830810018609	-0.023011742144276925	-0.051989820119430985
15	0.533333333333331	0.4804233778298186	-0.024693137217306926	-0.1735134428710572	0.4862762939278894	-0.024617977298664107	-0.151293233058016	0.47540782194246356	-0.028364079013087795	-0.12236810490536641	0.47374265476220523	-0.02785930836985384	-0.07779386991631115	0.49425424911994276	-0.015190638223720687	-0.09910156581308664	0.5117667308180334	-0.019640136735595948	-0.10033239795715013	0.5314979907688945	-0.00785662652530339	-0.11052239800010792	0.4999505938290192	0.020539728013434178	-0.11399297276925884	0.4989236950418886	-0.016073735497492803	-0.08444947179931069	0.5169902395238976	-0.014813487771345057	-0.08455785144838837	0.5394606846512983	0.0018231974058282585	-0.09278642070993687	0.5054056006490373	0.030591767309768758	-0.0957475961996766	0.5031005975072067	-0.004121719837644755	-0.06854461047231415	0.5210807880074659	-0.005396630194533958	-0.0688401661460601	0.5407080074707361	0.00933870527354086	-0.07306179187365869	0.5104932952261378	0.03595702255485389	-0.07670283335755841	0.5056146805875771	-0.0059655201601536145	-0.05098711244740038	0.521865168687347	-0.011336853622970322	-0.050721757307147494	0.5373730256581898	0.0025425681707537118	-0.053493046148785015	0.5138243069172568	0.029834607034398997	-0.054712025773596934	0.4622830810018609	-0.023011742144276925	-0.051989820119430985
16	0.5666666666666642	0.4804582779949671	-0.02462726011338734	-0.1735103648063338	0.4863020645618994	-0.024570271482451944	-0.15128769820540394	0.475415960172177	-0.02832228700514927	-0.1223699681642423	0.47375117401536215	-0.027829971409909726	-0.07779557963891577	0.4942408957423564	-0.015061761762201531	-0.09912277001600721	0.5117329132434811	-0.01960095057607958	-0.10031654078642696	0.5314813407750453	-0.007844192069729417	-0.11050418391199433	0.49995045875612965	0.020570943841123235	-0.1139711168904345	0.4989346176688523	-0.01609814336941251	-0.08446463975418585	0.5169989412025382	-0.014804711921995395	-0.08454978880674538	0.5394642060057739	0.0018413391212390717	-0.09277355996032995	0.5054067447618978	0.03060792396078016	-0.09572666871067566	0.5030926638267146	-0.004194762963326326	-0.0685220493979223	0.5210772206426955	-0.005401397330174862	-0.06883788105798316	0.5407082197559568	0.00932935811407587	-0.07305791623044465	0.5105028199302493	0.0359618021084237	-0.07667282732991548	0.5055989240199965	-0.006063913627917916	-0.05097295861926515	0.5218737821396184	-0.011362159858997689	-0.050733000162395236	0.5373890236198083	0.0025105661635717036	-0.05349647144216689	0.5138492295838611	0.02981147915606941	-0.054688821022305045	0.4622830810018608	-0.023011742144276925	-0.051989820119430985
17	0.5999999999999973	0.4804699621172228	-0.024593188354503193	-0.17351426604815828	0.4863041600710466	-0.024541657843855647	-0.15128906686250254	0.4754047486524179	-0.02830178280817519	-0.12237740328220732	0.4737362335231614	-0.02782588838717337	-0.07780297584041618	0.49424093138647707	-0.014844372791047555	-0.09920322259414596	0.5116849723055219	-0.01958581336988352	-0.10030964821390405	0.5314450822334356	-0.007848337285563445	-0.1104968727528443	0.4999349574469084	0.020589353703125757	-0.11396758754511747	0.49892979451622743	-0.01605305403508228	-0.08450700160319463	0.5169968864677721	-0.014797017433722082	-0.08455760269485044	0.5394521712267127	0.0018630373106135467	-0.09278027332613743	0.5053903201022745	0.030625684262793995	-0.09572108261625183	0.5031260699134048	-0.00416357908809728	-0.06853388292485743	0.5211070956059375	-0.005424027725308589	-0.06884045147744788	0.5407189862684146	0.009330950550485384	-0.07306470759230298	0.5105107740279203	0.03596390481580125	-0.0766522547118315	0.5055561764980467	-0.006155963142389642	-0.05095838397894489	0.5218563306747285	-0.011376553230559971	-0.05073385570076806	0.5373887568015667	0.0024759254890361904	-0.05350235546371701	0.5138679106917963	0.02979442734294646	-0.05466541424915829	0.4622830810018609	-0.023011742144276925	-0.051989820119430985
